<svg width="23" height="27" viewBox="0 0 23 27" fill="none" xmlns="http://www.w3.org/2000/svg">
<path d="M6.87259 21.4841H2.05995C0.923661 21.4841 0 20.5159 0 19.3213V7.64293C0 6.44835 0.922518 5.4801 2.06109 5.4801H6.87373L19.4335 10.0527C20.343 10.0527 21.2153 10.414 21.8584 11.0571C22.5016 11.7003 22.8629 12.5726 22.8629 13.4821C22.8629 14.3917 22.5016 15.264 21.8584 15.9071C21.2153 16.5502 20.343 16.9116 19.4335 16.9116L6.87259 21.4841Z" fill="#B4ACBC"/>
<path d="M16.7015 25.8624L6.85669 21.4853V5.50301L16.059 1.17392C17.3416 0.569194 19.4747 1.20021 19.4747 2.62V24.1203C19.4746 24.4474 19.3916 24.7692 19.2334 25.0555C19.0752 25.3418 18.847 25.5834 18.5701 25.7576C18.2933 25.9319 17.9768 26.0331 17.6502 26.0518C17.3236 26.0705 16.9976 26.0061 16.7026 25.8647" fill="#CDC4D6"/>
</svg>
