<svg width="221" height="198" viewBox="0 0 221 198" fill="none" xmlns="http://www.w3.org/2000/svg">
<path d="M109.435 114.092C108.446 110.832 107.663 107.515 107.031 104.166C106.298 100.278 105.636 95.3589 104.972 91.8344C104.164 87.5468 103.088 83.459 101.594 79.5752C98.5019 71.543 90.9562 61.038 76.85 55.5352C76.85 55.5352 71.4784 52.808 60.388 52.6304C60.388 52.6304 60.3718 52.6304 60.3637 52.6304C60.3557 52.6304 60.3476 52.6304 60.3395 52.6304C49.2491 52.81 43.8775 55.5372 43.8775 55.5372C29.7713 61.038 22.2276 71.545 19.133 79.5772C17.6372 83.459 16.5613 87.5488 15.7558 91.8364C15.0917 95.361 14.4296 100.28 13.6968 104.168C13.065 107.515 12.2818 110.834 11.2926 114.094C-0.968597 154.505 27.8959 168.385 27.8959 168.385C42.2687 177.199 59.6613 176.417 60.3637 176.383C61.0662 176.419 78.4588 177.199 92.8316 168.385C92.8316 168.385 121.696 154.505 109.435 114.094V114.092Z" fill="#1E71F7"/>
<path d="M57.528 186.589V161.402L43.2562 150.681L28.3626 160.209C28.3626 160.209 29.6929 174.588 28.1022 182.529C27.7873 184.106 27.1171 185.588 26.1462 186.87C24.7654 188.694 22.7569 192.144 25.1146 195.215C25.1146 195.215 26.6791 197.473 31.9659 197.245H47.2793C49.5281 197.245 51.7405 196.551 53.525 195.184C54.8896 194.141 56.2098 192.58 56.9728 190.255C57.3604 189.074 57.53 187.832 57.53 186.591L57.528 186.589Z" fill="#1E71F7"/>
<path d="M63.3819 186.589V161.402L77.6537 150.681L92.5472 160.209C92.5472 160.209 91.2169 174.588 92.8076 182.529C93.1225 184.106 93.7927 185.588 94.7637 186.87C96.1444 188.694 98.153 192.144 95.7952 195.215C95.7952 195.215 94.2308 197.473 88.9439 197.245H73.6305C71.3818 197.245 69.1693 196.551 67.3849 195.184C66.0203 194.141 64.7001 192.58 63.937 190.255C63.5495 189.074 63.3799 187.832 63.3799 186.591L63.3819 186.589Z" fill="#1E71F7"/>
<path d="M44.5801 81.1445C60.7999 77.8461 63.1435 103.905 47.5455 104.367C33.3484 104.787 32.1917 83.6658 44.5801 81.1445Z" fill="#FEFCEE" stroke="white" stroke-width="0.201864" stroke-miterlimit="10"/>
<path d="M75.3401 80.9746C59.1204 77.6761 56.7767 103.735 72.3747 104.197C86.5718 104.617 87.7285 83.4959 75.3401 80.9746Z" fill="#FEFCEE" stroke="white" stroke-width="0.201864" stroke-miterlimit="10"/>
<path d="M48.5064 88.3726C55.5696 87.1735 56.2418 98.2377 49.6631 98.6232C43.7686 98.9684 43.1428 89.285 48.5064 88.3726Z" fill="black"/>
<path d="M71.6142 88.2007C64.5509 87.0016 63.8787 98.0658 70.4575 98.4513C76.3519 98.7965 76.9777 89.1131 71.6142 88.2007Z" fill="black"/>
<path d="M67.9679 104.97C69.3668 106.359 68.0648 108.093 66.9323 109.145C63.8458 112.011 58.7588 112.324 55.1798 110.188C53.7042 109.308 51.3686 107.173 52.4102 105.321C53.8717 102.725 56.3708 106.193 57.6769 106.884C59.2837 107.732 61.3104 107.786 62.9314 106.961C64.3848 106.222 66.1006 103.117 67.9679 104.97Z" fill="black"/>
<path d="M108.247 110.63C69.6247 151.32 28.1156 127.584 12.1889 110.63C12.1889 121.142 11.7634 143.706 12.1889 149.794C12.6866 156.915 23.1385 167.087 29.1111 169.63H91.8226C117.704 154.372 113.058 124.533 108.247 110.63Z" fill="#F4C425"/>
<path d="M108.813 110.779C108.813 110.779 116.312 124.397 117.398 131.137L120.951 147.153L101.79 155.094C101.79 155.094 96.6366 136.038 95.2639 132.516L108.813 110.779Z" fill="#1E71F7"/>
<path d="M12.2433 110.779C12.2433 110.779 4.99979 124.629 3.65806 131.137L0.105255 147.153L19.2662 155.094C19.2662 155.094 24.4198 136.038 25.7925 132.516L12.2433 110.779Z" fill="#1E71F7"/>
<path d="M116.5 128.13C116.891 126.202 111.273 114.791 108.5 110.13C107.325 113.216 96.8937 121.559 91.9998 124.613L96.8937 137.63C103.093 135.22 116.108 130.059 116.5 128.13Z" fill="#F4C425"/>
<path d="M112.39 162.279C119.386 162.279 125.057 156.608 125.057 149.612C125.057 142.616 119.386 136.945 112.39 136.945C105.394 136.945 99.7231 142.616 99.7231 149.612C99.7231 156.608 105.394 162.279 112.39 162.279Z" fill="#1E71F7"/>
<path d="M12.667 162.279C19.6627 162.279 25.3339 156.608 25.3339 149.612C25.3339 142.616 19.6627 136.945 12.667 136.945C5.67119 136.945 0 142.616 0 149.612C0 156.608 5.67119 162.279 12.667 162.279Z" fill="#1E71F7"/>
<path d="M28.5 180.631L57.5 182.631V176.631H63V182.631L92.5 181.131L92 169.131H28.8349L28.5 180.631Z" fill="#0C30A8"/>
<path d="M109.435 114.092C108.446 110.832 107.663 107.515 107.031 104.166C106.298 100.278 105.636 95.3589 104.972 91.8344C104.164 87.5468 103.088 83.459 101.594 79.5752C98.5019 71.543 90.9562 61.038 76.85 55.5352C76.85 55.5352 71.4784 52.808 60.388 52.6304C60.388 52.6304 60.3718 52.6304 60.3637 52.6304C60.3557 52.6304 60.3476 52.6304 60.3395 52.6304C49.2491 52.81 43.8775 55.5372 43.8775 55.5372C29.7713 61.038 22.2276 71.545 19.133 79.5772C17.6372 83.459 16.5613 87.5488 15.7558 91.8364C15.0917 95.361 14.4296 100.28 13.6968 104.168C13.065 107.515 12.2818 110.834 11.2926 114.094C-0.968597 154.505 27.8959 168.385 27.8959 168.385C42.2687 177.199 59.6613 176.417 60.3637 176.383C61.0662 176.419 78.4588 177.199 92.8316 168.385C92.8316 168.385 121.696 154.505 109.435 114.094V114.092Z" fill="#1E71F7"/>
<path d="M57.528 186.589V161.402L43.2562 150.681L28.3626 160.209C28.3626 160.209 29.6929 174.588 28.1022 182.529C27.7873 184.106 27.1171 185.588 26.1462 186.87C24.7654 188.694 22.7569 192.144 25.1146 195.215C25.1146 195.215 26.6791 197.473 31.9659 197.245H47.2793C49.5281 197.245 51.7405 196.551 53.525 195.184C54.8896 194.141 56.2098 192.58 56.9728 190.255C57.3604 189.074 57.53 187.832 57.53 186.591L57.528 186.589Z" fill="#1E71F7"/>
<path d="M63.3819 186.589V161.402L77.6537 150.681L92.5472 160.209C92.5472 160.209 91.2169 174.588 92.8076 182.529C93.1225 184.106 93.7927 185.588 94.7637 186.87C96.1444 188.694 98.153 192.144 95.7952 195.215C95.7952 195.215 94.2308 197.473 88.9439 197.245H73.6305C71.3818 197.245 69.1693 196.551 67.3849 195.184C66.0203 194.141 64.7001 192.58 63.937 190.255C63.5495 189.074 63.3799 187.832 63.3799 186.591L63.3819 186.589Z" fill="#1E71F7"/>
<path d="M44.5801 81.1445C60.7999 77.8461 63.1435 103.905 47.5455 104.367C33.3484 104.787 32.1917 83.6658 44.5801 81.1445Z" fill="#FEFCEE" stroke="white" stroke-width="0.201864" stroke-miterlimit="10"/>
<path d="M75.3401 80.9746C59.1204 77.6761 56.7767 103.735 72.3747 104.197C86.5718 104.617 87.7285 83.4959 75.3401 80.9746Z" fill="#FEFCEE" stroke="white" stroke-width="0.201864" stroke-miterlimit="10"/>
<path d="M48.5064 88.3726C55.5696 87.1735 56.2418 98.2377 49.6631 98.6232C43.7686 98.9684 43.1428 89.285 48.5064 88.3726Z" fill="black"/>
<path d="M71.6142 88.2007C64.5509 87.0016 63.8787 98.0658 70.4575 98.4513C76.3519 98.7965 76.9777 89.1131 71.6142 88.2007Z" fill="black"/>
<path d="M67.9679 104.97C69.3668 106.359 68.0648 108.093 66.9323 109.145C63.8458 112.011 58.7588 112.324 55.1798 110.188C53.7042 109.308 51.3686 107.173 52.4102 105.321C53.8717 102.725 56.3708 106.193 57.6769 106.884C59.2837 107.732 61.3104 107.786 62.9314 106.961C64.3848 106.222 66.1006 103.117 67.9679 104.97Z" fill="black"/>
<path d="M108.247 110.63C69.6247 151.32 28.1156 127.584 12.1889 110.63C12.1889 121.142 11.7634 143.706 12.1889 149.794C12.6866 156.915 23.1385 167.087 29.1111 169.63H91.8226C117.704 154.372 113.058 124.533 108.247 110.63Z" fill="#F4C425"/>
<path d="M108.813 110.779C108.813 110.779 116.312 124.397 117.398 131.137L120.951 147.153L101.79 155.094C101.79 155.094 96.6366 136.038 95.2639 132.516L108.813 110.779Z" fill="#1E71F7"/>
<path d="M12.2433 110.779C12.2433 110.779 4.99979 124.629 3.65806 131.137L0.105255 147.153L19.2662 155.094C19.2662 155.094 24.4198 136.038 25.7925 132.516L12.2433 110.779Z" fill="#1E71F7"/>
<path d="M116.5 128.13C116.891 126.202 111.273 114.791 108.5 110.13C107.325 113.216 96.8937 121.559 91.9998 124.613L96.8937 137.63C103.093 135.22 116.108 130.059 116.5 128.13Z" fill="#F4C425"/>
<path d="M112.39 162.279C119.386 162.279 125.057 156.608 125.057 149.612C125.057 142.616 119.386 136.945 112.39 136.945C105.394 136.945 99.7231 142.616 99.7231 149.612C99.7231 156.608 105.394 162.279 112.39 162.279Z" fill="#1E71F7"/>
<path d="M12.667 162.279C19.6627 162.279 25.3339 156.608 25.3339 149.612C25.3339 142.616 19.6627 136.945 12.667 136.945C5.67119 136.945 0 142.616 0 149.612C0 156.608 5.67119 162.279 12.667 162.279Z" fill="#1E71F7"/>
<path d="M28.5 180.631L57.5 182.631V176.631H63V182.631L92.5 181.131L92 169.131H28.8349L28.5 180.631Z" fill="#0C30A8"/>
<path d="M5 126.63C5 125.43 9.83333 114.964 12 110.63C14 114.63 23.8333 121.464 28.5 124.13L25.5 133.63C18.8333 131.464 5 127.83 5 126.63Z" fill="#F4C425"/>
<line x1="96.7764" y1="138.183" x2="116.776" y2="128.183" stroke="#AE880A"/>
<line x1="25.523" y1="133.999" x2="4.84174" y2="127.106" stroke="#AE880A"/>
<path d="M12 110.63C29 127.797 71.3 151.83 108.5 110.63" stroke="#AE880A" stroke-linecap="round"/>
<path d="M168.274 56.8415C158.081 107.214 128.042 135.098 113.693 143.012C113.567 143.081 113.491 143.208 113.485 143.351C113.285 148.355 118.724 148.705 121.619 148.232C121.696 148.22 121.766 148.185 121.824 148.134C156.572 117.529 167.427 77.347 168.984 56.9034C169.024 56.3885 168.376 56.3354 168.274 56.8415Z" fill="#C4DAFD"/>
<path d="M131.053 55.6723C139.399 60.2112 155.655 61.4145 162.74 61.4488C164.229 57.2542 167.196 44.4576 168.367 38.0325C170.139 24.1732 164.165 14.1825 161.011 11.3444C144.565 -1.06829 136.587 12.6253 134.654 21.0237C117.163 18.3179 114.005 30.8383 114.613 37.4368C116.016 46.2925 120.621 49.9986 131.053 55.6723Z" fill="#9AEF78"/>
<path d="M194.558 67.2481C185.147 68.5501 169.512 63.9396 162.871 61.4717C162.958 57.0216 164.698 44.0013 165.869 37.5763C169.101 23.9832 178.216 16.7432 182.169 15.2006C201.937 9.38955 204.57 25.0175 203.415 33.5578C220.736 37.1982 219.272 50.0274 216.375 55.987C211.938 63.7779 206.321 65.6206 194.558 67.2481Z" fill="#9AEF78"/>
<path d="M117.353 26.3847C117.178 35.5849 121.364 40.5643 131.025 48.7777C137.876 54.6023 151.565 59.143 160.144 61.3742C152.234 61.0954 138.499 59.7035 131.057 55.6557C120.625 49.9821 116.019 46.2758 114.616 37.4203C114.33 34.3183 114.877 29.907 117.353 26.3847Z" fill="#73C055"/>
<path d="M194.555 67.2481C185.144 68.5501 169.509 63.9396 162.868 61.4717C162.955 57.0216 164.695 44.0013 165.866 37.5763C169.098 23.9832 178.213 16.7432 182.166 15.2006C201.934 9.38955 204.567 25.0175 203.412 33.5578C220.733 37.1982 219.269 50.0274 216.372 55.987C211.935 63.7779 206.318 65.6206 194.555 67.2481Z" fill="#C4DAFD"/>
<path d="M131.118 55.3161C140.528 54.0141 156.164 58.6246 162.805 61.0925C162.718 65.5426 160.978 78.5629 159.807 84.9879C156.574 98.581 147.459 105.821 143.507 107.364C123.739 113.175 121.106 97.5467 122.26 89.0064C104.94 85.366 106.403 72.5368 109.3 66.5773C113.738 58.7863 119.354 56.9436 131.118 55.3161Z" fill="#C4DAFD"/>
<path d="M152.744 99.8185L148.704 107.091C148.066 108.238 149.146 109.58 150.403 109.203L152.536 108.563C152.882 108.459 153.178 108.231 153.363 107.921C156.103 103.353 158.982 97.5943 157.674 98.0239C156.576 98.3846 154.851 98.8282 153.737 99.0819C153.317 99.1775 152.953 99.442 152.744 99.8185Z" fill="#C4DAFD"/>
<path d="M194.619 66.8936C186.274 62.3547 170.017 61.1514 162.932 61.1172C161.443 65.3117 158.477 78.1083 157.306 84.5334C155.534 98.3927 161.508 108.383 164.662 111.221C181.107 123.634 189.086 109.941 191.019 101.542C208.51 104.248 211.668 91.7276 211.06 85.1292C209.657 76.2734 205.052 72.5673 194.619 66.8936Z" fill="#C4DAFD"/>
<path d="M113.219 61.446C111.773 62.7867 110.503 64.4395 109.319 66.5182C106.422 72.4778 104.958 85.3069 122.279 88.9473C121.124 97.4877 123.758 113.115 143.525 107.304C144.644 106.868 146.176 105.973 147.872 104.609C127.605 110.453 124.904 94.3627 126.095 85.5551C108.171 81.7882 109.685 68.5127 112.683 62.3459C112.859 62.0366 113.039 61.7375 113.219 61.446Z" fill="#C4DAFD"/>
</svg>
