<svg width="36" height="35" viewBox="0 0 36 35" fill="none" xmlns="http://www.w3.org/2000/svg">
<path d="M20.5 34.742C20.5 34.8845 20.6155 35 20.758 35C21.9511 34.999 23.0949 34.5242 23.938 33.68L34.183 23.438C35.0261 22.5944 35.4997 21.4506 35.5 20.258C35.5 20.1155 35.3845 20 35.242 20H21.5C20.9477 20 20.5 20.4477 20.5 21V34.742Z" fill="white"/>
<path d="M28.5 0C32.366 0 35.5 3.13401 35.5 7V18H20.5C19.3954 18 18.5 18.8954 18.5 20V35H7.5C3.63401 35 0.5 31.866 0.5 28V7C0.5 3.13401 3.63401 5.63724e-08 7.5 0H28.5ZM8.5 8V11H27.5V8H8.5Z" fill="white"/>
</svg>
