<svg width="221" height="198" viewBox="0 0 221 198" fill="none" xmlns="http://www.w3.org/2000/svg">
<path d="M109.435 114.353C108.446 111.093 107.663 107.776 107.031 104.427C106.298 100.54 105.636 95.6202 104.972 92.0956C104.164 87.808 103.088 83.7203 101.594 79.8364C98.5019 71.8042 90.9562 61.2992 76.85 55.7964C76.85 55.7964 71.4784 53.0692 60.388 52.8916C60.388 52.8916 60.3718 52.8916 60.3637 52.8916C60.3557 52.8916 60.3476 52.8916 60.3395 52.8916C49.2491 53.0713 43.8775 55.7984 43.8775 55.7984C29.7713 61.2992 22.2276 71.8063 19.133 79.8384C17.6372 83.7203 16.5613 87.81 15.7558 92.0976C15.0917 95.6222 14.4296 100.542 13.6968 104.43C13.065 107.776 12.2818 111.095 11.2926 114.355C-0.968597 154.766 27.8959 168.646 27.8959 168.646C42.2687 177.46 59.6613 176.679 60.3637 176.644C61.0662 176.681 78.4588 177.46 92.8316 168.646C92.8316 168.646 121.696 154.766 109.435 114.355V114.353Z" fill="#1E71F7"/>
<path d="M57.528 186.85V161.663L43.2562 150.942L28.3626 160.47C28.3626 160.47 29.6929 174.849 28.1022 182.79C27.7873 184.367 27.1171 185.849 26.1462 187.131C24.7654 188.955 22.7569 192.405 25.1146 195.476C25.1146 195.476 26.6791 197.734 31.9659 197.506H47.2793C49.5281 197.506 51.7405 196.812 53.525 195.445C54.8896 194.402 56.2098 192.841 56.9728 190.516C57.3604 189.335 57.53 188.093 57.53 186.852L57.528 186.85Z" fill="#1E71F7"/>
<path d="M63.3819 186.85V161.663L77.6537 150.942L92.5472 160.47C92.5472 160.47 91.2169 174.849 92.8076 182.79C93.1225 184.367 93.7927 185.849 94.7637 187.131C96.1444 188.955 98.153 192.405 95.7952 195.476C95.7952 195.476 94.2308 197.734 88.9439 197.506H73.6305C71.3818 197.506 69.1693 196.812 67.3849 195.445C66.0203 194.402 64.7001 192.841 63.937 190.516C63.5495 189.335 63.3799 188.093 63.3799 186.852L63.3819 186.85Z" fill="#1E71F7"/>
<path d="M44.5801 81.4057C60.7999 78.1073 63.1435 104.166 47.5455 104.628C33.3484 105.048 32.1917 83.927 44.5801 81.4057Z" fill="#FEFCEE" stroke="white" stroke-width="0.201864" stroke-miterlimit="10"/>
<path d="M75.3401 81.2358C59.1204 77.9374 56.7767 103.996 72.3747 104.458C86.5718 104.878 87.7285 83.7571 75.3401 81.2358Z" fill="#FEFCEE" stroke="white" stroke-width="0.201864" stroke-miterlimit="10"/>
<path d="M48.5064 88.6338C55.5696 87.4347 56.2418 98.4989 49.6631 98.8844C43.7686 99.2296 43.1428 89.5462 48.5064 88.6338Z" fill="black"/>
<path d="M71.6142 88.4619C64.5509 87.2628 63.8787 98.327 70.4575 98.7126C76.3519 99.0577 76.9777 89.3743 71.6142 88.4619Z" fill="black"/>
<path d="M67.9679 105.231C69.3668 106.62 68.0648 108.354 66.9323 109.406C63.8458 112.272 58.7588 112.585 55.1798 110.45C53.7042 109.569 51.3686 107.434 52.4102 105.583C53.8717 102.987 56.3708 106.455 57.6769 107.145C59.2837 107.993 61.3104 108.047 62.9314 107.222C64.3848 106.483 66.1006 103.378 67.9679 105.231Z" fill="black"/>
<path d="M108.247 110.892C69.6247 151.581 28.1156 127.846 12.1889 110.892C12.1889 121.403 11.7634 143.967 12.1889 150.055C12.6866 157.176 23.1385 167.348 29.1111 169.892H91.8226C117.704 154.633 113.058 124.794 108.247 110.892Z" fill="#F4C425"/>
<path d="M108.813 111.04C108.813 111.04 116.312 124.658 117.398 131.398L120.951 147.414L101.79 155.355C101.79 155.355 96.6366 136.299 95.2639 132.777L108.813 111.04Z" fill="#1E71F7"/>
<path d="M12.2433 111.04C12.2433 111.04 4.99979 124.891 3.65806 131.398L0.105255 147.414L19.2662 155.355C19.2662 155.355 24.4198 136.299 25.7925 132.777L12.2433 111.04Z" fill="#1E71F7"/>
<path d="M116.5 128.392C116.891 126.463 111.273 115.052 108.5 110.392C107.325 113.477 96.8937 121.82 91.9998 124.874L96.8937 137.892C103.093 135.481 116.108 130.32 116.5 128.392Z" fill="#F4C425"/>
<path d="M112.39 162.54C119.386 162.54 125.057 156.869 125.057 149.873C125.057 142.877 119.386 137.206 112.39 137.206C105.394 137.206 99.7231 142.877 99.7231 149.873C99.7231 156.869 105.394 162.54 112.39 162.54Z" fill="#1E71F7"/>
<path d="M12.667 162.54C19.6627 162.54 25.3339 156.869 25.3339 149.873C25.3339 142.877 19.6627 137.206 12.667 137.206C5.67119 137.206 0 142.877 0 149.873C0 156.869 5.67119 162.54 12.667 162.54Z" fill="#1E71F7"/>
<path d="M28.5 180.892L57.5 182.892V176.892H63V182.892L92.5 181.392L92 169.392H28.8349L28.5 180.892Z" fill="#0C30A8"/>
<path d="M109.435 114.353C108.446 111.093 107.663 107.776 107.031 104.427C106.298 100.54 105.636 95.6202 104.972 92.0956C104.164 87.808 103.088 83.7203 101.594 79.8364C98.5019 71.8042 90.9562 61.2992 76.85 55.7964C76.85 55.7964 71.4784 53.0692 60.388 52.8916C60.388 52.8916 60.3718 52.8916 60.3637 52.8916C60.3557 52.8916 60.3476 52.8916 60.3395 52.8916C49.2491 53.0713 43.8775 55.7984 43.8775 55.7984C29.7713 61.2992 22.2276 71.8063 19.133 79.8384C17.6372 83.7203 16.5613 87.81 15.7558 92.0976C15.0917 95.6222 14.4296 100.542 13.6968 104.43C13.065 107.776 12.2818 111.095 11.2926 114.355C-0.968597 154.766 27.8959 168.646 27.8959 168.646C42.2687 177.46 59.6613 176.679 60.3637 176.644C61.0662 176.681 78.4588 177.46 92.8316 168.646C92.8316 168.646 121.696 154.766 109.435 114.355V114.353Z" fill="#1E71F7"/>
<path d="M57.528 186.85V161.663L43.2562 150.942L28.3626 160.47C28.3626 160.47 29.6929 174.849 28.1022 182.79C27.7873 184.367 27.1171 185.849 26.1462 187.131C24.7654 188.955 22.7569 192.405 25.1146 195.476C25.1146 195.476 26.6791 197.734 31.9659 197.506H47.2793C49.5281 197.506 51.7405 196.812 53.525 195.445C54.8896 194.402 56.2098 192.841 56.9728 190.516C57.3604 189.335 57.53 188.093 57.53 186.852L57.528 186.85Z" fill="#1E71F7"/>
<path d="M63.3819 186.85V161.663L77.6537 150.942L92.5472 160.47C92.5472 160.47 91.2169 174.849 92.8076 182.79C93.1225 184.367 93.7927 185.849 94.7637 187.131C96.1444 188.955 98.153 192.405 95.7952 195.476C95.7952 195.476 94.2308 197.734 88.9439 197.506H73.6305C71.3818 197.506 69.1693 196.812 67.3849 195.445C66.0203 194.402 64.7001 192.841 63.937 190.516C63.5495 189.335 63.3799 188.093 63.3799 186.852L63.3819 186.85Z" fill="#1E71F7"/>
<path d="M44.5801 81.4057C60.7999 78.1073 63.1435 104.166 47.5455 104.628C33.3484 105.048 32.1917 83.927 44.5801 81.4057Z" fill="#FEFCEE" stroke="white" stroke-width="0.201864" stroke-miterlimit="10"/>
<path d="M75.3401 81.2358C59.1204 77.9374 56.7767 103.996 72.3747 104.458C86.5718 104.878 87.7285 83.7571 75.3401 81.2358Z" fill="#FEFCEE" stroke="white" stroke-width="0.201864" stroke-miterlimit="10"/>
<path d="M48.5064 88.6338C55.5696 87.4347 56.2418 98.4989 49.6631 98.8844C43.7686 99.2296 43.1428 89.5462 48.5064 88.6338Z" fill="black"/>
<path d="M71.6142 88.4619C64.5509 87.2628 63.8787 98.327 70.4575 98.7126C76.3519 99.0577 76.9777 89.3743 71.6142 88.4619Z" fill="black"/>
<path d="M67.9679 105.231C69.3668 106.62 68.0648 108.354 66.9323 109.406C63.8458 112.272 58.7588 112.585 55.1798 110.45C53.7042 109.569 51.3686 107.434 52.4102 105.583C53.8717 102.987 56.3708 106.455 57.6769 107.145C59.2837 107.993 61.3104 108.047 62.9314 107.222C64.3848 106.483 66.1006 103.378 67.9679 105.231Z" fill="black"/>
<path d="M108.247 110.892C69.6247 151.581 28.1156 127.846 12.1889 110.892C12.1889 121.403 11.7634 143.967 12.1889 150.055C12.6866 157.176 23.1385 167.348 29.1111 169.892H91.8226C117.704 154.633 113.058 124.794 108.247 110.892Z" fill="#F4C425"/>
<path d="M108.813 111.04C108.813 111.04 116.312 124.658 117.398 131.398L120.951 147.414L101.79 155.355C101.79 155.355 96.6366 136.299 95.2639 132.777L108.813 111.04Z" fill="#1E71F7"/>
<path d="M12.2433 111.04C12.2433 111.04 4.99979 124.891 3.65806 131.398L0.105255 147.414L19.2662 155.355C19.2662 155.355 24.4198 136.299 25.7925 132.777L12.2433 111.04Z" fill="#1E71F7"/>
<path d="M116.5 128.392C116.891 126.463 111.273 115.052 108.5 110.392C107.325 113.477 96.8937 121.82 91.9998 124.874L96.8937 137.892C103.093 135.481 116.108 130.32 116.5 128.392Z" fill="#F4C425"/>
<path d="M112.39 162.54C119.386 162.54 125.057 156.869 125.057 149.873C125.057 142.877 119.386 137.206 112.39 137.206C105.394 137.206 99.7231 142.877 99.7231 149.873C99.7231 156.869 105.394 162.54 112.39 162.54Z" fill="#1E71F7"/>
<path d="M12.667 162.54C19.6627 162.54 25.3339 156.869 25.3339 149.873C25.3339 142.877 19.6627 137.206 12.667 137.206C5.67119 137.206 0 142.877 0 149.873C0 156.869 5.67119 162.54 12.667 162.54Z" fill="#1E71F7"/>
<path d="M28.5 180.892L57.5 182.892V176.892H63V182.892L92.5 181.392L92 169.392H28.8349L28.5 180.892Z" fill="#0C30A8"/>
<path d="M5 126.892C5 125.692 9.83333 115.225 12 110.892C14 114.892 23.8333 121.725 28.5 124.392L25.5 133.892C18.8333 131.725 5 128.092 5 126.892Z" fill="#F4C425"/>
<line x1="96.7764" y1="138.444" x2="116.776" y2="128.444" stroke="#AE880A"/>
<line x1="25.523" y1="134.26" x2="4.84174" y2="127.367" stroke="#AE880A"/>
<path d="M12 110.892C29 128.058 71.3 152.092 108.5 110.892" stroke="#AE880A" stroke-linecap="round"/>
<path d="M168.013 56.842C157.82 107.215 127.782 135.098 113.432 143.012C113.306 143.081 113.23 143.209 113.224 143.352C113.024 148.356 118.464 148.705 121.358 148.233C121.435 148.22 121.505 148.185 121.563 148.134C156.311 117.53 167.166 77.3475 168.723 56.9039C168.763 56.389 168.115 56.3358 168.013 56.842Z" fill="#C4DAFD"/>
<path d="M130.792 55.6723C139.138 60.2112 155.394 61.4145 162.479 61.4488C163.968 57.2542 166.935 44.4576 168.106 38.0325C169.878 24.1732 163.904 14.1825 160.75 11.3444C144.304 -1.06829 136.326 12.6253 134.393 21.0237C116.902 18.3179 113.744 30.8383 114.352 37.4368C115.755 46.2925 120.36 49.9986 130.792 55.6723Z" fill="#9AEF78"/>
<path d="M194.297 67.2481C184.886 68.5501 169.251 63.9396 162.61 61.4717C162.697 57.0216 164.437 44.0013 165.608 37.5763C168.84 23.9832 177.955 16.7432 181.908 15.2006C201.676 9.38955 204.309 25.0175 203.154 33.5578C220.475 37.1982 219.011 50.0274 216.114 55.987C211.677 63.7779 206.06 65.6206 194.297 67.2481Z" fill="#C4DAFD"/>
<path d="M117.092 26.3852C116.917 35.5854 121.103 40.5648 130.764 48.7782C137.615 54.6028 151.304 59.1435 159.883 61.3747C151.973 61.0959 138.239 59.704 130.796 55.6561C120.364 49.9826 115.758 46.2763 114.355 37.4208C114.069 34.3188 114.616 29.9075 117.092 26.3852Z" fill="#73C055"/>
<path d="M194.294 67.2481C184.883 68.5501 169.248 63.9396 162.607 61.4717C162.694 57.0216 164.434 44.0013 165.605 37.5763C168.837 23.9832 177.952 16.7432 181.905 15.2006C201.673 9.38955 204.306 25.0175 203.151 33.5578C220.472 37.1982 219.008 50.0274 216.111 55.987C211.674 63.7779 206.057 65.6206 194.294 67.2481Z" fill="#87E861"/>
<path d="M130.857 55.3163C140.267 54.0143 155.903 58.6248 162.544 61.0928C162.457 65.5429 160.717 78.5631 159.546 84.9881C156.313 98.5812 147.198 105.821 143.246 107.364C123.478 113.175 120.845 97.547 121.999 89.0066C104.679 85.3663 106.142 72.5371 109.039 66.5775C113.477 58.7866 119.094 56.9438 130.857 55.3163Z" fill="#C4DAFD"/>
<path d="M152.483 99.8187L148.443 107.091C147.805 108.239 148.885 109.58 150.142 109.203L152.275 108.563C152.621 108.459 152.917 108.232 153.102 107.922C155.842 103.353 158.721 97.5946 157.413 98.0241C156.315 98.3849 154.59 98.8285 153.476 99.0821C153.056 99.1777 152.692 99.4422 152.483 99.8187Z" fill="#C4DAFD"/>
<path d="M194.358 66.8936C186.013 62.3547 169.756 61.1514 162.671 61.1172C161.182 65.3117 158.216 78.1083 157.045 84.5334C155.273 98.3927 161.247 108.383 164.401 111.221C180.846 123.634 188.825 109.941 190.758 101.542C208.249 104.248 211.407 91.7276 210.799 85.1292C209.396 76.2734 204.791 72.5673 194.358 66.8936Z" fill="#64E332"/>
<path d="M112.958 61.4465C111.512 62.7872 110.242 64.44 109.058 66.5186C106.161 72.4783 104.697 85.3074 122.018 88.9478C120.863 97.4882 123.497 113.116 143.264 107.305C144.383 106.868 145.915 105.974 147.611 104.609C127.344 110.453 124.643 94.3632 125.834 85.5556C107.91 81.7887 109.424 68.5132 112.422 62.3464C112.598 62.037 112.778 61.738 112.958 61.4465Z" fill="#C4DAFD"/>
</svg>
