<svg width="221" height="197" viewBox="0 0 221 197" fill="none" xmlns="http://www.w3.org/2000/svg">
<path d="M109.435 113.461C108.446 110.201 107.663 106.885 107.031 103.536C106.298 99.6477 105.636 94.7283 104.972 91.2038C104.164 86.9162 103.088 82.8284 101.594 78.9446C98.5019 70.9124 90.9562 60.4074 76.85 54.9046C76.85 54.9046 71.4784 52.1774 60.388 51.9998C60.388 51.9998 60.3718 51.9998 60.3637 51.9998C60.3557 51.9998 60.3476 51.9998 60.3395 51.9998C49.2491 52.1794 43.8775 54.9066 43.8775 54.9066C29.7713 60.4074 22.2276 70.9144 19.133 78.9466C17.6372 82.8284 16.5613 86.9182 15.7558 91.2058C15.0917 94.7303 14.4296 99.6498 13.6968 103.538C13.065 106.885 12.2818 110.203 11.2926 113.463C-0.968597 153.874 27.8959 167.755 27.8959 167.755C42.2687 176.568 59.6613 175.787 60.3637 175.752C61.0662 175.789 78.4588 176.568 92.8316 167.755C92.8316 167.755 121.696 153.874 109.435 113.463V113.461Z" fill="#1E71F7"/>
<path d="M57.528 185.958V160.772L43.2562 150.051L28.3626 159.579C28.3626 159.579 29.6929 173.958 28.1022 181.899C27.7873 183.475 27.1171 184.957 26.1462 186.239C24.7654 188.064 22.7569 191.514 25.1146 194.584C25.1146 194.584 26.6791 196.843 31.9659 196.615H47.2793C49.5281 196.615 51.7405 195.92 53.525 194.554C54.8896 193.51 56.2098 191.95 56.9728 189.624C57.3604 188.443 57.53 187.202 57.53 185.96L57.528 185.958Z" fill="#1E71F7"/>
<path d="M63.3819 185.958V160.772L77.6537 150.051L92.5472 159.579C92.5472 159.579 91.2169 173.958 92.8076 181.899C93.1225 183.475 93.7927 184.957 94.7637 186.239C96.1444 188.064 98.153 191.514 95.7952 194.584C95.7952 194.584 94.2308 196.843 88.9439 196.615H73.6305C71.3818 196.615 69.1693 195.92 67.3849 194.554C66.0203 193.51 64.7001 191.95 63.937 189.624C63.5495 188.443 63.3799 187.202 63.3799 185.96L63.3819 185.958Z" fill="#1E71F7"/>
<path d="M44.5801 80.5139C60.7999 77.2154 63.1435 103.274 47.5455 103.736C33.3484 104.156 32.1917 83.0352 44.5801 80.5139Z" fill="#FEFCEE" stroke="white" stroke-width="0.201864" stroke-miterlimit="10"/>
<path d="M75.3401 80.344C59.1204 77.0455 56.7767 103.104 72.3747 103.566C86.5718 103.986 87.7285 82.8653 75.3401 80.344Z" fill="#FEFCEE" stroke="white" stroke-width="0.201864" stroke-miterlimit="10"/>
<path d="M48.5064 87.7419C55.5696 86.5429 56.2418 97.607 49.6631 97.9926C43.7686 98.3378 43.1428 88.6544 48.5064 87.7419Z" fill="black"/>
<path d="M71.6142 87.5701C64.5509 86.371 63.8787 97.4352 70.4575 97.8207C76.3519 98.1659 76.9777 88.4825 71.6142 87.5701Z" fill="black"/>
<path d="M67.9679 104.34C69.3668 105.728 68.0648 107.462 66.9323 108.514C63.8458 111.381 58.7588 111.693 55.1798 109.558C53.7042 108.678 51.3686 106.542 52.4102 104.691C53.8717 102.095 56.3708 105.563 57.6769 106.253C59.2837 107.101 61.3104 107.156 62.9314 106.33C64.3848 105.591 66.1006 102.486 67.9679 104.34Z" fill="black"/>
<path d="M108.247 110C69.6247 150.689 28.1156 126.954 12.1889 110C12.1889 120.511 11.7634 143.076 12.1889 149.164C12.6866 156.284 23.1385 166.457 29.1111 169H91.8226C117.704 153.741 113.058 123.902 108.247 110Z" fill="#F4C425"/>
<path d="M108.813 110.148C108.813 110.148 116.312 123.766 117.398 130.506L120.951 146.522L101.79 154.463C101.79 154.463 96.6366 135.407 95.2639 131.885L108.813 110.148Z" fill="#1E71F7"/>
<path d="M12.2433 110.148C12.2433 110.148 4.99979 123.999 3.65806 130.506L0.105255 146.522L19.2662 154.463C19.2662 154.463 24.4198 135.407 25.7925 131.885L12.2433 110.148Z" fill="#1E71F7"/>
<path d="M116.5 127.5C116.891 125.571 111.273 114.16 108.5 109.5C107.325 112.585 96.8937 120.928 91.9998 123.982L96.8937 137C103.093 134.589 116.108 129.428 116.5 127.5Z" fill="#F4C425"/>
<path d="M112.39 161.648C119.386 161.648 125.057 155.977 125.057 148.981C125.057 141.986 119.386 136.314 112.39 136.314C105.394 136.314 99.7231 141.986 99.7231 148.981C99.7231 155.977 105.394 161.648 112.39 161.648Z" fill="#1E71F7"/>
<path d="M12.667 161.648C19.6627 161.648 25.3339 155.977 25.3339 148.981C25.3339 141.986 19.6627 136.314 12.667 136.314C5.67119 136.314 0 141.986 0 148.981C0 155.977 5.67119 161.648 12.667 161.648Z" fill="#1E71F7"/>
<path d="M28.5 180L57.5 182V176H63V182L92.5 180.5L92 168.5H28.8349L28.5 180Z" fill="#0C30A8"/>
<path d="M109.435 113.461C108.446 110.201 107.663 106.885 107.031 103.536C106.298 99.6477 105.636 94.7283 104.972 91.2038C104.164 86.9162 103.088 82.8284 101.594 78.9446C98.5019 70.9124 90.9562 60.4074 76.85 54.9046C76.85 54.9046 71.4784 52.1774 60.388 51.9998C60.388 51.9998 60.3718 51.9998 60.3637 51.9998C60.3557 51.9998 60.3476 51.9998 60.3395 51.9998C49.2491 52.1794 43.8775 54.9066 43.8775 54.9066C29.7713 60.4074 22.2276 70.9144 19.133 78.9466C17.6372 82.8284 16.5613 86.9182 15.7558 91.2058C15.0917 94.7303 14.4296 99.6498 13.6968 103.538C13.065 106.885 12.2818 110.203 11.2926 113.463C-0.968597 153.874 27.8959 167.755 27.8959 167.755C42.2687 176.568 59.6613 175.787 60.3637 175.752C61.0662 175.789 78.4588 176.568 92.8316 167.755C92.8316 167.755 121.696 153.874 109.435 113.463V113.461Z" fill="#1E71F7"/>
<path d="M57.528 185.958V160.772L43.2562 150.051L28.3626 159.579C28.3626 159.579 29.6929 173.958 28.1022 181.899C27.7873 183.475 27.1171 184.957 26.1462 186.239C24.7654 188.064 22.7569 191.514 25.1146 194.584C25.1146 194.584 26.6791 196.843 31.9659 196.615H47.2793C49.5281 196.615 51.7405 195.92 53.525 194.554C54.8896 193.51 56.2098 191.95 56.9728 189.624C57.3604 188.443 57.53 187.202 57.53 185.96L57.528 185.958Z" fill="#1E71F7"/>
<path d="M63.3819 185.958V160.772L77.6537 150.051L92.5472 159.579C92.5472 159.579 91.2169 173.958 92.8076 181.899C93.1225 183.475 93.7927 184.957 94.7637 186.239C96.1444 188.064 98.153 191.514 95.7952 194.584C95.7952 194.584 94.2308 196.843 88.9439 196.615H73.6305C71.3818 196.615 69.1693 195.92 67.3849 194.554C66.0203 193.51 64.7001 191.95 63.937 189.624C63.5495 188.443 63.3799 187.202 63.3799 185.96L63.3819 185.958Z" fill="#1E71F7"/>
<path d="M44.5801 80.5139C60.7999 77.2154 63.1435 103.274 47.5455 103.736C33.3484 104.156 32.1917 83.0352 44.5801 80.5139Z" fill="#FEFCEE" stroke="white" stroke-width="0.201864" stroke-miterlimit="10"/>
<path d="M75.3401 80.344C59.1204 77.0455 56.7767 103.104 72.3747 103.566C86.5718 103.986 87.7285 82.8653 75.3401 80.344Z" fill="#FEFCEE" stroke="white" stroke-width="0.201864" stroke-miterlimit="10"/>
<path d="M48.5064 87.7419C55.5696 86.5429 56.2418 97.607 49.6631 97.9926C43.7686 98.3378 43.1428 88.6544 48.5064 87.7419Z" fill="black"/>
<path d="M71.6142 87.5701C64.5509 86.371 63.8787 97.4352 70.4575 97.8207C76.3519 98.1659 76.9777 88.4825 71.6142 87.5701Z" fill="black"/>
<path d="M67.9679 104.34C69.3668 105.728 68.0648 107.462 66.9323 108.514C63.8458 111.381 58.7588 111.693 55.1798 109.558C53.7042 108.678 51.3686 106.542 52.4102 104.691C53.8717 102.095 56.3708 105.563 57.6769 106.253C59.2837 107.101 61.3104 107.156 62.9314 106.33C64.3848 105.591 66.1006 102.486 67.9679 104.34Z" fill="black"/>
<path d="M108.247 110C69.6247 150.689 28.1156 126.954 12.1889 110C12.1889 120.511 11.7634 143.076 12.1889 149.164C12.6866 156.284 23.1385 166.457 29.1111 169H91.8226C117.704 153.741 113.058 123.902 108.247 110Z" fill="#F4C425"/>
<path d="M108.813 110.148C108.813 110.148 116.312 123.766 117.398 130.506L120.951 146.522L101.79 154.463C101.79 154.463 96.6366 135.407 95.2639 131.885L108.813 110.148Z" fill="#1E71F7"/>
<path d="M12.2433 110.148C12.2433 110.148 4.99979 123.999 3.65806 130.506L0.105255 146.522L19.2662 154.463C19.2662 154.463 24.4198 135.407 25.7925 131.885L12.2433 110.148Z" fill="#1E71F7"/>
<path d="M116.5 127.5C116.891 125.571 111.273 114.16 108.5 109.5C107.325 112.585 96.8937 120.928 91.9998 123.982L96.8937 137C103.093 134.589 116.108 129.428 116.5 127.5Z" fill="#F4C425"/>
<path d="M112.39 161.648C119.386 161.648 125.057 155.977 125.057 148.981C125.057 141.986 119.386 136.314 112.39 136.314C105.394 136.314 99.7231 141.986 99.7231 148.981C99.7231 155.977 105.394 161.648 112.39 161.648Z" fill="#1E71F7"/>
<path d="M12.667 161.648C19.6627 161.648 25.3339 155.977 25.3339 148.981C25.3339 141.986 19.6627 136.314 12.667 136.314C5.67119 136.314 0 141.986 0 148.981C0 155.977 5.67119 161.648 12.667 161.648Z" fill="#1E71F7"/>
<path d="M28.5 180L57.5 182V176H63V182L92.5 180.5L92 168.5H28.8349L28.5 180Z" fill="#0C30A8"/>
<path d="M5 126C5 124.8 9.83333 114.333 12 110C14 114 23.8333 120.833 28.5 123.5L25.5 133C18.8333 130.833 5 127.2 5 126Z" fill="#F4C425"/>
<line x1="96.7764" y1="137.553" x2="116.776" y2="127.553" stroke="#AE880A"/>
<line x1="25.523" y1="133.369" x2="4.84174" y2="126.475" stroke="#AE880A"/>
<path d="M12 110C29 127.166 71.3 151.2 108.5 110" stroke="#AE880A" stroke-linecap="round"/>
<path d="M167.795 55.8417C157.602 106.214 127.563 134.098 113.213 142.012C113.088 142.081 113.012 142.208 113.006 142.352C112.805 147.356 118.245 147.705 121.14 147.232C121.217 147.22 121.287 147.185 121.345 147.134C156.092 116.529 166.947 76.3473 168.505 55.9037C168.544 55.3888 167.897 55.3356 167.795 55.8417Z" fill="#C4DAFD"/>
<path d="M130.574 54.6725C138.92 59.2115 155.176 60.4147 162.261 60.449C163.75 56.2545 166.716 43.4578 167.888 37.0328C169.66 23.1735 163.686 13.1828 160.532 10.3447C144.086 -2.06804 136.108 11.6255 134.174 20.0239C116.683 17.3181 113.526 29.8386 114.133 36.437C115.537 45.2927 120.142 48.9989 130.574 54.6725Z" fill="#C4DAFD"/>
<path d="M194.079 66.2484C184.668 67.5504 169.033 62.9399 162.391 60.4719C162.478 56.0218 164.218 43.0016 165.39 36.5766C168.622 22.9835 177.737 15.7434 181.69 14.2008C201.458 8.3898 204.091 24.0177 202.936 32.5581C220.257 36.1984 218.793 49.0276 215.896 54.9872C211.458 62.7781 205.842 64.6209 194.079 66.2484Z" fill="#C4DAFD"/>
<path d="M116.874 25.3849C116.698 34.5852 120.885 39.5645 130.546 47.778C137.397 53.6025 151.086 58.1433 159.665 60.3744C151.755 60.0957 138.02 58.7038 130.577 54.6559C120.145 48.9823 115.54 45.276 114.137 36.4206C113.851 33.3186 114.398 28.9072 116.874 25.3849Z" fill="#C4DAFD"/>
<path d="M194.076 66.2484C184.665 67.5504 169.03 62.9399 162.388 60.4719C162.475 56.0218 164.215 43.0016 165.387 36.5766C168.619 22.9835 177.734 15.7434 181.687 14.2008C201.455 8.3898 204.088 24.0177 202.933 32.5581C220.254 36.1984 218.79 49.0276 215.893 54.9872C211.455 62.7781 205.839 64.6209 194.076 66.2484Z" fill="#C4DAFD"/>
<path d="M130.639 54.3163C140.049 53.0143 155.684 57.6248 162.326 60.0928C162.239 64.5429 160.499 77.5631 159.327 83.9881C156.095 97.5812 146.98 104.821 143.027 106.364C123.259 112.175 120.627 96.547 121.781 88.0066C104.46 84.3663 105.924 71.5371 108.821 65.5775C113.259 57.7866 118.875 55.9438 130.639 54.3163Z" fill="#C4DAFD"/>
<path d="M152.264 98.8187L148.224 106.091C147.587 107.239 148.667 108.58 149.924 108.203L152.057 107.563C152.403 107.459 152.698 107.232 152.884 106.922C155.624 102.353 158.502 96.5946 157.195 97.0241C156.097 97.3849 154.372 97.8285 153.258 98.0821C152.838 98.1777 152.473 98.4422 152.264 98.8187Z" fill="#C4DAFD"/>
<path d="M194.14 65.8939C185.794 61.3549 169.538 60.1517 162.453 60.1174C160.964 64.3119 157.998 77.1086 156.827 83.5336C155.054 97.3929 161.028 107.384 164.182 110.222C180.628 122.634 188.606 108.941 190.54 100.542C208.031 103.248 211.188 90.7278 210.581 84.1294C209.177 75.2737 204.572 71.5676 194.14 65.8939Z" fill="#C4DAFD"/>
<path d="M112.74 60.4463C111.294 61.787 110.023 63.4398 108.839 65.5184C105.943 71.478 104.479 84.3072 121.8 87.9475C120.645 96.4879 123.278 112.116 143.046 106.305C144.165 105.868 145.697 104.974 147.393 103.609C127.126 109.453 124.425 93.3629 125.615 84.5554C107.692 80.7885 109.206 67.5129 112.204 61.3461C112.38 61.0368 112.56 60.7378 112.74 60.4463Z" fill="#C4DAFD"/>
</svg>
