<svg width="34" height="35" viewBox="0 0 34 35" fill="none" xmlns="http://www.w3.org/2000/svg">
<path d="M26.169 18.4232C25.6732 22.3808 22.9692 23.9621 21.8013 25.1101C20.6317 26.2613 20.8412 26.4906 20.9198 28.179C20.9329 28.3879 20.9012 28.5972 20.8268 28.7939C20.7523 28.9906 20.6366 29.1707 20.4868 29.3229C20.337 29.4751 20.1562 29.5963 19.9557 29.6791C19.7551 29.7618 19.5391 29.8043 19.3207 29.8039H14.6807C14.4626 29.8035 14.2467 29.7606 14.0465 29.6776C13.8462 29.5947 13.6657 29.4735 13.5159 29.3214C13.3661 29.1694 13.2502 28.9896 13.1752 28.7932C13.1003 28.5968 13.0678 28.3878 13.0799 28.179C13.0799 26.5224 13.2405 26.1375 12.2001 25.1101C10.8734 23.8383 7.75213 22.0428 7.75213 17.1046C7.74416 15.878 8.00136 14.6632 8.50751 13.5366C9.01366 12.41 9.75779 11.3962 10.693 10.559C11.6282 9.72174 12.7342 9.07931 13.9412 8.67217C15.1483 8.26503 16.4303 8.10201 17.7063 8.19337C18.9824 8.28473 20.2248 8.62851 21.3554 9.20302C22.486 9.77753 23.4801 10.5703 24.2752 11.5314C25.0703 12.4925 25.649 13.6011 25.975 14.7872C26.3009 15.9734 26.367 17.2114 26.169 18.4232Z" stroke="white" stroke-width="1.5" stroke-linecap="round" stroke-linejoin="round"/>
<path d="M14.3108 29.7115V32.2416C14.3108 32.9327 14.7123 33.5 15.2063 33.5H18.7902C19.2877 33.5 19.6875 32.931 19.6875 32.2416V29.7115M15.6375 12.0741C14.6067 12.0745 13.6184 12.4673 12.8897 13.1662C12.161 13.865 11.7516 14.8126 11.7516 15.8007M29.7984 17.4423H33M26.5759 7.38192L28.847 5.20486M28.3216 25.9698L30.5927 28.1452M16.9991 1.5V3.98162M5.19835 5.20318L7.45377 7.38192M3.45268 28.1452L5.70809 25.9698M4.19983 17.4423H1" stroke="white" stroke-width="1.5" stroke-linecap="round" stroke-linejoin="round"/>
</svg>
