<svg width="76" height="68" viewBox="0 0 76 68" fill="none" xmlns="http://www.w3.org/2000/svg">
<ellipse cx="38" cy="54" rx="38" ry="13" fill="#E8E8E8"/>
<path d="M38.1803 52L34.3842 48.4033C20.9016 35.6785 12.0005 27.2589 12.0005 16.9864C12.0005 8.56676 18.336 2 26.3994 2C30.9547 2 35.3267 4.20708 38.1803 7.66757C41.0339 4.20708 45.406 2 49.9612 2C58.0246 2 64.3602 8.56676 64.3602 16.9864C64.3602 27.2589 55.459 35.6785 41.9764 48.4033L38.1803 52Z" fill="#E24D4B"/>
<path d="M25.7793 40.385C54.6874 34.1477 50.0955 16.3139 54.6874 2.96094C67.6803 8.76812 65.4888 21.5117 60.2185 29.0933C56.0023 35.1586 43.6772 46.8912 38.0417 51.9994L25.7793 40.385Z" fill="#D1403F"/>
<ellipse cx="4.94128" cy="3.81249" rx="4.94128" ry="3.81249" transform="matrix(0.921913 -0.387397 0.35808 0.933691 16.8857 11.1427)" fill="#E8716F"/>
<path d="M17.674 31.0675L20.1818 33.423L7.23705 47.6528L4.58485 45.1386C4.30881 44.877 4.1616 44.5073 4.1822 44.1275L4.5298 37.7196C4.5452 37.4358 4.65344 37.1649 4.83787 36.9486L9.23873 31.7875C9.45767 31.5308 9.76808 31.3695 10.104 31.3379L16.6651 30.7217C17.0354 30.6869 17.4028 30.8128 17.674 31.0675Z" fill="#22529B"/>
<path d="M13.3338 33.787L19.2711 33.1482C19.6546 33.107 20.0364 33.2385 20.3131 33.5072L24.2327 37.3135C24.5017 37.5747 24.6444 37.9395 24.6241 38.3138L24.3036 44.2221C24.2874 44.5203 24.1688 44.8038 23.9677 45.0247L19.254 50.2028C19.0439 50.4335 18.7577 50.5808 18.4479 50.6175L12.0072 51.381C11.6307 51.4257 11.2536 51.3033 10.9751 51.0461L7.37978 47.7267C7.09594 47.4646 6.94375 47.0896 6.96467 46.7038L7.31859 40.1795C7.33515 39.8743 7.45896 39.5848 7.66818 39.3621L12.5275 34.1885C12.7397 33.9626 13.0257 33.8202 13.3338 33.787Z" fill="#326EC9"/>
<path d="M16.7094 46.7918L23.8272 51.5938L26.9262 48.6435L28.1461 45.0702L28.1644 45.0831L28.1589 45.0328L28.1461 45.0702L21.5004 40.4011C21.0047 40.0528 20.4193 39.8339 19.8142 39.8617C15.9793 40.0377 15.2883 42.8316 15.5054 44.9619C15.5832 45.7247 16.0737 46.3629 16.7094 46.7918Z" fill="#E1E2E3"/>
<path d="M15.495 44.0361L24.6881 50.5235L24.3645 52.0266L16.4672 46.6364C15.982 46.3052 15.5687 45.8508 15.4753 45.2708C15.391 44.7481 15.4144 44.2542 15.495 44.0361Z" fill="#C8C8C8"/>
<path d="M37.6735 42.0677L40.1813 44.4232L27.2366 58.6531L24.5844 56.1389C24.3083 55.8772 24.1611 55.5075 24.1817 55.1277L24.5293 48.7199C24.5447 48.436 24.653 48.1651 24.8374 47.9489L29.2382 42.7878C29.4572 42.531 29.7676 42.3697 30.1035 42.3382L36.6646 41.7219C37.0349 41.6871 37.4023 41.8131 37.6735 42.0677Z" fill="#22529B"/>
<path d="M33.3334 44.7873L39.2707 44.1485C39.6541 44.1072 40.036 44.2388 40.3126 44.5074L44.2322 48.3137C44.5012 48.5749 44.6439 48.9397 44.6236 49.3141L44.3031 55.2224C44.2869 55.5206 44.1683 55.8041 43.9672 56.0249L39.2535 61.203C39.0435 61.4338 38.7572 61.581 38.4474 61.6178L32.0067 62.3813C31.6302 62.4259 31.2531 62.3035 30.9746 62.0464L27.3793 58.7269C27.0954 58.4648 26.9433 58.0898 26.9642 57.7041L27.3181 51.1797C27.3347 50.8746 27.4585 50.5851 27.6677 50.3623L32.527 45.1887C32.7392 44.9628 33.0252 44.8204 33.3334 44.7873Z" fill="#326EC9"/>
</svg>
