<svg width="59" height="86" viewBox="0 0 59 86" fill="none" xmlns="http://www.w3.org/2000/svg">
<path d="M1.50482 49.624C0.67373 48.7051 0.744898 47.2865 1.66378 46.4554L15.182 34.2288C16.1008 33.3977 17.5195 33.4689 18.3505 34.3877L39.0417 57.2647L22.196 72.5009L1.50482 49.624Z" fill="#F49300"/>
<path d="M1.50482 49.624C0.67373 48.7051 0.744898 47.2865 1.66378 46.4554L6.03119 42.5053L28.2272 67.046L22.196 72.5009L1.50482 49.624Z" fill="#F66D02"/>
<path d="M39.0102 77.9219L22.1963 72.5002L39.0423 57.2637L42.3417 72.6175L39.0102 77.9219Z" fill="#F4C600"/>
<path d="M41.9407 78.841L35.4834 76.7412L41.9305 70.9101L43.2132 76.8082L41.9407 78.841Z" fill="#4D75DD"/>
<path d="M5.84133 15.571C5.12319 14.2424 5.61809 12.5831 6.94673 11.865L26.4932 1.29988C27.8218 0.581735 29.481 1.07664 30.1992 2.40528L48.0786 35.4838L23.7207 48.6496L5.84133 15.571Z" fill="#F49300"/>
<path d="M5.84133 15.571C5.12319 14.2424 5.61809 12.5831 6.94673 11.865L13.2617 8.45163L32.4414 43.9359L23.7207 48.6496L5.84133 15.571Z" fill="#F66D02"/>
<path d="M42.0613 59.936L23.7207 48.6492L48.079 35.4832L47.5417 54.6192L42.0613 59.936Z" fill="#F4C600"/>
<path d="M45.2661 61.8721L38.2275 57.5166L47.5497 52.4779L47.3613 59.8333L45.2661 61.8721Z" fill="#4D75DD"/>
</svg>
