<svg width="76" height="69" viewBox="0 0 76 69" fill="none" xmlns="http://www.w3.org/2000/svg">
<ellipse cx="38" cy="55" rx="38" ry="13" fill="#E8E8E8"/>
<path d="M9.72216 57.3067L1.85947 12.2461C1.3848 9.52581 3.21057 6.96754 5.93744 6.53207L40.7683 0.969724C43.3217 0.561965 45.7931 2.15628 46.436 4.66379C49.9683 18.4414 54.9813 40.9137 53.4442 47.0582C51.7284 53.9171 47.6295 56.2832 45.7945 56.6089L15.5191 61.4438C12.7922 61.8792 10.1968 60.027 9.72216 57.3067Z" fill="#FFECC3"/>
<rect width="22.6025" height="2.90429" rx="1.45214" transform="matrix(0.986469 -0.163945 0.165361 0.986233 5.81299 14.9338)" fill="#FCC866"/>
<rect width="38.8859" height="2.90429" rx="1.45214" transform="matrix(0.986469 -0.163945 0.165361 0.986233 7.25391 21.4319)" fill="#FCC866"/>
<rect width="38.8859" height="2.90429" rx="1.45214" transform="matrix(0.986469 -0.163945 0.165361 0.986233 7.25391 21.4319)" fill="#FCC866"/>
<rect width="34.2682" height="2.90429" rx="1.45214" transform="matrix(0.986469 -0.163945 0.165361 0.986233 8.41431 28.3535)" fill="#FCC866"/>
<rect width="37.4277" height="2.90429" rx="1.45214" transform="matrix(0.986469 -0.163945 0.165361 0.986233 9.57489 35.2756)" fill="#FCC866"/>
<rect width="38.8859" height="2.90429" rx="1.45214" transform="matrix(0.986469 -0.163945 0.165361 0.986233 10.7356 42.1978)" fill="#FCC866"/>
<rect width="24.7898" height="2.90429" rx="1.45214" transform="matrix(0.986469 -0.163945 0.165361 0.986233 11.896 49.1194)" fill="#FCC866"/>
<path d="M41.9534 49.6257L53.0392 47.8554C52.002 52.5733 48.4806 55.6402 46.5742 56.4866L40.9822 57.3838C40.7598 56.7758 40.5869 54.7214 40.5134 52.7009C40.4399 50.6804 41.4428 49.8089 41.9534 49.6257Z" fill="#FBC765"/>
<path d="M47.3719 39.2691L50.8446 44.5051L54.1305 42.4302L50.5071 37.151L47.1112 36.0549L47.3719 39.2691Z" fill="#032845"/>
<path d="M50.7426 44.4343L54.901 41.8758C55.2543 41.7813 55.5217 42.0809 55.6113 42.2425L63.4335 53.496C64.2794 56.1196 62.5237 57.19 61.5402 57.3972C59.9421 57.6239 58.7249 57.12 58.316 56.8396C56.0708 53.4369 51.4609 46.5076 50.9833 46.0119C50.5057 45.5162 50.6238 44.7536 50.7426 44.4343Z" fill="#0271E3"/>
<circle cx="41.108" cy="25.5669" r="15.1313" transform="rotate(-29 41.108 25.5669)" fill="#032845"/>
<circle cx="41.108" cy="25.5668" r="11.584" transform="rotate(-29 41.108 25.5668)" fill="#C5EAFF"/>
<path d="M29.538 25.4977C29.2328 29.4058 32.6909 39.4217 44.311 36.7195C40.402 37.3654 32.3965 35.7764 29.538 25.4977Z" fill="#85C1FF"/>
</svg>
