<svg width="47" height="48" viewBox="0 0 47 48" fill="none" xmlns="http://www.w3.org/2000/svg">
<path d="M28.3227 13.5753C28.5042 13.7565 28.6483 13.9717 28.7465 14.2086C28.8448 14.4455 28.8954 14.6994 28.8954 14.9559C28.8954 15.2124 28.8448 15.4664 28.7465 15.7033C28.6483 15.9402 28.5042 16.1554 28.3227 16.3365L20.7244 23.9349L28.3227 31.5332C28.6888 31.8994 28.8946 32.396 28.8946 32.9138C28.8946 33.4317 28.6888 33.9283 28.3227 34.2945C27.9565 34.6606 27.4599 34.8663 26.9421 34.8663C26.4242 34.8663 25.9276 34.6606 25.5614 34.2945L16.5727 25.3057C16.3911 25.1245 16.2471 24.9093 16.1488 24.6724C16.0506 24.4355 16 24.1816 16 23.9251C16 23.6686 16.0506 23.4146 16.1488 23.1777C16.2471 22.9408 16.3911 22.7256 16.5727 22.5445L25.5614 13.5557C26.3056 12.8115 27.5589 12.8115 28.3227 13.5753Z" fill="white"/>
</svg>
