<svg width="47" height="48" viewBox="0 0 47 48" fill="none" xmlns="http://www.w3.org/2000/svg">
<path d="M28.3228 13.5753C28.5043 13.7565 28.6484 13.9717 28.7467 14.2086C28.8449 14.4455 28.8955 14.6994 28.8955 14.9559C28.8955 15.2124 28.8449 15.4664 28.7467 15.7033C28.6484 15.9402 28.5043 16.1554 28.3228 16.3365L20.7245 23.9349L28.3228 31.5332C28.689 31.8994 28.8947 32.396 28.8947 32.9138C28.8947 33.4317 28.689 33.9283 28.3228 34.2945C27.9566 34.6606 27.46 34.8663 26.9422 34.8663C26.4243 34.8663 25.9277 34.6606 25.5616 34.2945L16.5728 25.3057C16.3913 25.1245 16.2472 24.9093 16.149 24.6724C16.0507 24.4355 16.0001 24.1816 16.0001 23.9251C16.0001 23.6686 16.0507 23.4146 16.149 23.1777C16.2472 22.9408 16.3913 22.7256 16.5728 22.5445L25.5616 13.5557C26.3057 12.8115 27.5591 12.8115 28.3228 13.5753Z" fill="black"/>
</svg>
