<svg width="40" height="40" viewBox="0 0 40 40" fill="none" xmlns="http://www.w3.org/2000/svg">
<path d="M11.0263 35C10.2586 35 9.61801 34.7433 9.10467 34.23C8.59134 33.7167 8.33412 33.0761 8.33301 32.3083V7.69167C8.33301 6.925 8.59023 6.285 9.10467 5.77167C9.61912 5.25833 10.2597 5.00111 11.0263 5H28.9747C29.7413 5 30.3819 5.25722 30.8963 5.77167C31.4108 6.28611 31.6675 6.92667 31.6663 7.69333V32.3083C31.6663 33.075 31.4097 33.7156 30.8963 34.23C30.383 34.7444 29.7419 35.0011 28.973 35H11.0263ZM11.0263 33.3333H28.9747C29.2302 33.3333 29.4652 33.2267 29.6797 33.0133C29.8941 32.8 30.0008 32.5644 29.9997 32.3067V7.69333C29.9997 7.43667 29.893 7.20111 29.6797 6.98667C29.4663 6.77222 29.2308 6.66556 28.973 6.66667H26.6663V16.86L23.333 14.8717L19.9997 16.86V6.66667H11.0263C10.7697 6.66667 10.5341 6.77333 10.3197 6.98667C10.1052 7.2 9.99856 7.435 9.99967 7.69167V32.3083C9.99967 32.5639 10.1063 32.7989 10.3197 33.0133C10.533 33.2278 10.768 33.3344 11.0247 33.3333" fill="white"/>
</svg>
