<svg width="221" height="198" viewBox="0 0 221 198" fill="none" xmlns="http://www.w3.org/2000/svg">
<path d="M109.435 113.984C108.446 110.724 107.663 107.407 107.031 104.058C106.298 100.17 105.636 95.251 104.972 91.7265C104.164 87.4389 103.088 83.3511 101.594 79.4673C98.5019 71.4351 90.9562 60.9301 76.85 55.4273C76.85 55.4273 71.4784 52.7001 60.388 52.5225C60.388 52.5225 60.3718 52.5225 60.3637 52.5225C60.3557 52.5225 60.3476 52.5225 60.3395 52.5225C49.2491 52.7021 43.8775 55.4293 43.8775 55.4293C29.7713 60.9301 22.2276 71.4371 19.133 79.4693C17.6372 83.3511 16.5613 87.4409 15.7558 91.7285C15.0917 95.253 14.4296 100.172 13.6968 104.06C13.065 107.407 12.2818 110.726 11.2926 113.986C-0.968597 154.397 27.8959 168.277 27.8959 168.277C42.2687 177.091 59.6613 176.31 60.3637 176.275C61.0662 176.312 78.4588 177.091 92.8316 168.277C92.8316 168.277 121.696 154.397 109.435 113.986V113.984Z" fill="#1E71F7"/>
<path d="M57.528 186.481V161.294L43.2562 150.573L28.3626 160.101C28.3626 160.101 29.6929 174.48 28.1022 182.421C27.7873 183.998 27.1171 185.48 26.1462 186.761C24.7654 188.586 22.7569 192.036 25.1146 195.106C25.1146 195.106 26.6791 197.365 31.9659 197.137H47.2793C49.5281 197.137 51.7405 196.443 53.525 195.076C54.8896 194.033 56.2098 192.472 56.9728 190.147C57.3604 188.966 57.53 187.724 57.53 186.483L57.528 186.481Z" fill="#1E71F7"/>
<path d="M63.3819 186.481V161.294L77.6537 150.573L92.5472 160.101C92.5472 160.101 91.2169 174.48 92.8076 182.421C93.1225 183.998 93.7927 185.48 94.7637 186.761C96.1444 188.586 98.153 192.036 95.7952 195.106C95.7952 195.106 94.2308 197.365 88.9439 197.137H73.6305C71.3818 197.137 69.1693 196.443 67.3849 195.076C66.0203 194.033 64.7001 192.472 63.937 190.147C63.5495 188.966 63.3799 187.724 63.3799 186.483L63.3819 186.481Z" fill="#1E71F7"/>
<path d="M44.5801 81.0366C60.7999 77.7381 63.1435 103.797 47.5455 104.259C33.3484 104.679 32.1917 83.5579 44.5801 81.0366Z" fill="#FEFCEE" stroke="white" stroke-width="0.201864" stroke-miterlimit="10"/>
<path d="M75.3401 80.8667C59.1204 77.5682 56.7767 103.627 72.3747 104.089C86.5718 104.509 87.7285 83.388 75.3401 80.8667Z" fill="#FEFCEE" stroke="white" stroke-width="0.201864" stroke-miterlimit="10"/>
<path d="M48.5064 88.2646C55.5696 87.0656 56.2418 98.1297 49.6631 98.5153C43.7686 98.8605 43.1428 89.1771 48.5064 88.2646Z" fill="black"/>
<path d="M71.6142 88.0928C64.5509 86.8937 63.8787 97.9579 70.4575 98.3434C76.3519 98.6886 76.9777 89.0052 71.6142 88.0928Z" fill="black"/>
<path d="M67.9679 104.862C69.3668 106.251 68.0648 107.985 66.9323 109.037C63.8458 111.903 58.7588 112.216 55.1798 110.08C53.7042 109.2 51.3686 107.065 52.4102 105.214C53.8717 102.618 56.3708 106.086 57.6769 106.776C59.2837 107.624 61.3104 107.678 62.9314 106.853C64.3848 106.114 66.1006 103.009 67.9679 104.862Z" fill="black"/>
<path d="M108.247 110.522C69.6247 151.212 28.1156 127.476 12.1889 110.522C12.1889 121.034 11.7634 143.598 12.1889 149.686C12.6866 156.807 23.1385 166.979 29.1111 169.522H91.8226C117.704 154.264 113.058 124.425 108.247 110.522Z" fill="#F4C425"/>
<path d="M108.813 110.671C108.813 110.671 116.312 124.289 117.398 131.029L120.951 147.045L101.79 154.986C101.79 154.986 96.6366 135.93 95.2639 132.408L108.813 110.671Z" fill="#1E71F7"/>
<path d="M12.2433 110.671C12.2433 110.671 4.99979 124.521 3.65806 131.029L0.105255 147.045L19.2662 154.986C19.2662 154.986 24.4198 135.93 25.7925 132.408L12.2433 110.671Z" fill="#1E71F7"/>
<path d="M116.5 128.022C116.891 126.094 111.273 114.683 108.5 110.022C107.325 113.108 96.8937 121.451 91.9998 124.505L96.8937 137.522C103.093 135.112 116.108 129.951 116.5 128.022Z" fill="#F4C425"/>
<path d="M112.39 162.171C119.386 162.171 125.057 156.5 125.057 149.504C125.057 142.508 119.386 136.837 112.39 136.837C105.394 136.837 99.7231 142.508 99.7231 149.504C99.7231 156.5 105.394 162.171 112.39 162.171Z" fill="#1E71F7"/>
<path d="M12.667 162.171C19.6627 162.171 25.3339 156.5 25.3339 149.504C25.3339 142.508 19.6627 136.837 12.667 136.837C5.67119 136.837 0 142.508 0 149.504C0 156.5 5.67119 162.171 12.667 162.171Z" fill="#1E71F7"/>
<path d="M28.5 180.522L57.5 182.522V176.522H63V182.522L92.5 181.022L92 169.022H28.8349L28.5 180.522Z" fill="#0C30A8"/>
<path d="M109.435 113.984C108.446 110.724 107.663 107.407 107.031 104.058C106.298 100.17 105.636 95.251 104.972 91.7265C104.164 87.4389 103.088 83.3511 101.594 79.4673C98.5019 71.4351 90.9562 60.9301 76.85 55.4273C76.85 55.4273 71.4784 52.7001 60.388 52.5225C60.388 52.5225 60.3718 52.5225 60.3637 52.5225C60.3557 52.5225 60.3476 52.5225 60.3395 52.5225C49.2491 52.7021 43.8775 55.4293 43.8775 55.4293C29.7713 60.9301 22.2276 71.4371 19.133 79.4693C17.6372 83.3511 16.5613 87.4409 15.7558 91.7285C15.0917 95.253 14.4296 100.172 13.6968 104.06C13.065 107.407 12.2818 110.726 11.2926 113.986C-0.968597 154.397 27.8959 168.277 27.8959 168.277C42.2687 177.091 59.6613 176.31 60.3637 176.275C61.0662 176.312 78.4588 177.091 92.8316 168.277C92.8316 168.277 121.696 154.397 109.435 113.986V113.984Z" fill="#1E71F7"/>
<path d="M57.528 186.481V161.294L43.2562 150.573L28.3626 160.101C28.3626 160.101 29.6929 174.48 28.1022 182.421C27.7873 183.998 27.1171 185.48 26.1462 186.761C24.7654 188.586 22.7569 192.036 25.1146 195.106C25.1146 195.106 26.6791 197.365 31.9659 197.137H47.2793C49.5281 197.137 51.7405 196.443 53.525 195.076C54.8896 194.033 56.2098 192.472 56.9728 190.147C57.3604 188.966 57.53 187.724 57.53 186.483L57.528 186.481Z" fill="#1E71F7"/>
<path d="M63.3819 186.481V161.294L77.6537 150.573L92.5472 160.101C92.5472 160.101 91.2169 174.48 92.8076 182.421C93.1225 183.998 93.7927 185.48 94.7637 186.761C96.1444 188.586 98.153 192.036 95.7952 195.106C95.7952 195.106 94.2308 197.365 88.9439 197.137H73.6305C71.3818 197.137 69.1693 196.443 67.3849 195.076C66.0203 194.033 64.7001 192.472 63.937 190.147C63.5495 188.966 63.3799 187.724 63.3799 186.483L63.3819 186.481Z" fill="#1E71F7"/>
<path d="M44.5801 81.0366C60.7999 77.7381 63.1435 103.797 47.5455 104.259C33.3484 104.679 32.1917 83.5579 44.5801 81.0366Z" fill="#FEFCEE" stroke="white" stroke-width="0.201864" stroke-miterlimit="10"/>
<path d="M75.3401 80.8667C59.1204 77.5682 56.7767 103.627 72.3747 104.089C86.5718 104.509 87.7285 83.388 75.3401 80.8667Z" fill="#FEFCEE" stroke="white" stroke-width="0.201864" stroke-miterlimit="10"/>
<path d="M48.5064 88.2646C55.5696 87.0656 56.2418 98.1297 49.6631 98.5153C43.7686 98.8605 43.1428 89.1771 48.5064 88.2646Z" fill="black"/>
<path d="M71.6142 88.0928C64.5509 86.8937 63.8787 97.9579 70.4575 98.3434C76.3519 98.6886 76.9777 89.0052 71.6142 88.0928Z" fill="black"/>
<path d="M67.9679 104.862C69.3668 106.251 68.0648 107.985 66.9323 109.037C63.8458 111.903 58.7588 112.216 55.1798 110.08C53.7042 109.2 51.3686 107.065 52.4102 105.214C53.8717 102.618 56.3708 106.086 57.6769 106.776C59.2837 107.624 61.3104 107.678 62.9314 106.853C64.3848 106.114 66.1006 103.009 67.9679 104.862Z" fill="black"/>
<path d="M108.247 110.522C69.6247 151.212 28.1156 127.476 12.1889 110.522C12.1889 121.034 11.7634 143.598 12.1889 149.686C12.6866 156.807 23.1385 166.979 29.1111 169.522H91.8226C117.704 154.264 113.058 124.425 108.247 110.522Z" fill="#F4C425"/>
<path d="M108.813 110.671C108.813 110.671 116.312 124.289 117.398 131.029L120.951 147.045L101.79 154.986C101.79 154.986 96.6366 135.93 95.2639 132.408L108.813 110.671Z" fill="#1E71F7"/>
<path d="M12.2433 110.671C12.2433 110.671 4.99979 124.521 3.65806 131.029L0.105255 147.045L19.2662 154.986C19.2662 154.986 24.4198 135.93 25.7925 132.408L12.2433 110.671Z" fill="#1E71F7"/>
<path d="M116.5 128.022C116.891 126.094 111.273 114.683 108.5 110.022C107.325 113.108 96.8937 121.451 91.9998 124.505L96.8937 137.522C103.093 135.112 116.108 129.951 116.5 128.022Z" fill="#F4C425"/>
<path d="M112.39 162.171C119.386 162.171 125.057 156.5 125.057 149.504C125.057 142.508 119.386 136.837 112.39 136.837C105.394 136.837 99.7231 142.508 99.7231 149.504C99.7231 156.5 105.394 162.171 112.39 162.171Z" fill="#1E71F7"/>
<path d="M12.667 162.171C19.6627 162.171 25.3339 156.5 25.3339 149.504C25.3339 142.508 19.6627 136.837 12.667 136.837C5.67119 136.837 0 142.508 0 149.504C0 156.5 5.67119 162.171 12.667 162.171Z" fill="#1E71F7"/>
<path d="M28.5 180.522L57.5 182.522V176.522H63V182.522L92.5 181.022L92 169.022H28.8349L28.5 180.522Z" fill="#0C30A8"/>
<path d="M5 126.522C5 125.322 9.83333 114.856 12 110.522C14 114.522 23.8333 121.356 28.5 124.022L25.5 133.522C18.8333 131.356 5 127.722 5 126.522Z" fill="#F4C425"/>
<line x1="96.7764" y1="138.075" x2="116.776" y2="128.075" stroke="#AE880A"/>
<line x1="25.523" y1="133.891" x2="4.84174" y2="126.998" stroke="#AE880A"/>
<path d="M12 110.522C29 127.689 71.3 151.722 108.5 110.522" stroke="#AE880A" stroke-linecap="round"/>
<path d="M168.104 56.842C157.912 107.215 127.873 135.098 113.523 143.012C113.397 143.081 113.321 143.209 113.316 143.352C113.115 148.356 118.555 148.705 121.45 148.233C121.526 148.22 121.596 148.185 121.654 148.134C156.402 117.53 167.257 77.3475 168.815 56.9039C168.854 56.389 168.207 56.3358 168.104 56.842Z" fill="#4BC71A"/>
<path d="M130.883 55.6723C139.229 60.2112 155.486 61.4145 162.571 61.4488C164.059 57.2542 167.026 44.4576 168.197 38.0325C169.969 24.1732 163.995 14.1825 160.841 11.3444C144.395 -1.06829 136.417 12.6253 134.484 21.0237C116.993 18.3179 113.835 30.8383 114.443 37.4368C115.846 46.2925 120.451 49.9986 130.883 55.6723Z" fill="#9AEF78"/>
<path d="M194.388 67.2481C184.977 68.5501 169.342 63.9396 162.701 61.4717C162.788 57.0216 164.528 44.0013 165.699 37.5763C168.932 23.9832 178.047 16.7432 181.999 15.2006C201.767 9.38955 204.4 25.0175 203.246 33.5578C220.566 37.1982 219.103 50.0274 216.206 55.987C211.768 63.7779 206.151 65.6206 194.388 67.2481Z" fill="#C4DAFD"/>
<path d="M117.184 26.3852C117.008 35.5854 121.194 40.5648 130.855 48.7782C137.707 54.6028 151.395 59.1435 159.975 61.3747C152.065 61.0959 138.33 59.704 130.887 55.6561C120.455 49.9826 115.85 46.2763 114.446 37.4208C114.161 34.3188 114.707 29.9075 117.184 26.3852Z" fill="#73C055"/>
<path d="M194.385 67.2481C184.975 68.5501 169.339 63.9396 162.698 61.4717C162.785 57.0216 164.525 44.0013 165.696 37.5763C168.929 23.9832 178.044 16.7432 181.996 15.2006C201.764 9.38955 204.397 25.0175 203.243 33.5578C220.563 37.1982 219.1 50.0274 216.203 55.987C211.765 63.7779 206.148 65.6206 194.385 67.2481Z" fill="#87E861"/>
<path d="M130.948 55.3163C140.359 54.0143 155.994 58.6248 162.635 61.0928C162.548 65.5429 160.808 78.5631 159.637 84.9881C156.405 98.5812 147.289 105.821 143.337 107.364C123.569 113.175 120.936 97.547 122.091 89.0066C104.77 85.3663 106.234 72.5371 109.13 66.5775C113.568 58.7866 119.185 56.9438 130.948 55.3163Z" fill="#4BC71A"/>
<path d="M152.574 99.8187L148.534 107.091C147.896 108.239 148.976 109.58 150.234 109.203L152.366 108.563C152.712 108.459 153.008 108.232 153.194 107.922C155.933 103.353 158.812 97.5946 157.504 98.0241C156.406 98.3849 154.682 98.8285 153.567 99.0821C153.147 99.1777 152.783 99.4422 152.574 99.8187Z" fill="#4DAF26"/>
<path d="M194.45 66.8936C186.104 62.3547 169.848 61.1514 162.763 61.1172C161.274 65.3117 158.307 78.1083 157.136 84.5334C155.364 98.3927 161.338 108.383 164.492 111.221C180.938 123.634 188.916 109.941 190.849 101.542C208.34 104.248 211.498 91.7276 210.89 85.1292C209.487 76.2734 204.882 72.5673 194.45 66.8936Z" fill="#64E332"/>
<path d="M113.05 61.4465C111.603 62.7872 110.333 64.44 109.149 66.5186C106.252 72.4783 104.789 85.3074 122.109 88.9478C120.955 97.4882 123.588 113.116 143.356 107.305C144.475 106.868 146.007 105.974 147.703 104.609C127.435 110.453 124.734 94.3632 125.925 85.5556C108.002 81.7887 109.516 68.5132 112.513 62.3464C112.69 62.037 112.87 61.738 113.05 61.4465Z" fill="#4DAF26"/>
</svg>
