<svg width="221" height="197" viewBox="0 0 221 197" fill="none" xmlns="http://www.w3.org/2000/svg">
<path d="M109.435 113.723C108.446 110.462 107.663 107.146 107.031 103.797C106.298 99.909 105.636 94.9895 104.972 91.465C104.164 87.1774 103.088 83.0897 101.594 79.2058C98.5019 71.1736 90.9562 60.6686 76.85 55.1658C76.85 55.1658 71.4784 52.4386 60.388 52.261C60.388 52.261 60.3718 52.261 60.3637 52.261C60.3557 52.261 60.3476 52.261 60.3395 52.261C49.2491 52.4406 43.8775 55.1678 43.8775 55.1678C29.7713 60.6686 22.2276 71.1756 19.133 79.2078C17.6372 83.0897 16.5613 87.1794 15.7558 91.467C15.0917 94.9916 14.4296 99.911 13.6968 103.799C13.065 107.146 12.2818 110.464 11.2926 113.725C-0.968597 154.136 27.8959 168.016 27.8959 168.016C42.2687 176.829 59.6613 176.048 60.3637 176.014C61.0662 176.05 78.4588 176.829 92.8316 168.016C92.8316 168.016 121.696 154.136 109.435 113.725V113.723Z" fill="#1E71F7"/>
<path d="M57.528 186.22V161.033L43.2562 150.312L28.3626 159.84C28.3626 159.84 29.6929 174.219 28.1022 182.16C27.7873 183.737 27.1171 185.218 26.1462 186.5C24.7654 188.325 22.7569 191.775 25.1146 194.845C25.1146 194.845 26.6791 197.104 31.9659 196.876H47.2793C49.5281 196.876 51.7405 196.182 53.525 194.815C54.8896 193.771 56.2098 192.211 56.9728 189.885C57.3604 188.705 57.53 187.463 57.53 186.222L57.528 186.22Z" fill="#1E71F7"/>
<path d="M63.3819 186.22V161.033L77.6537 150.312L92.5472 159.84C92.5472 159.84 91.2169 174.219 92.8076 182.16C93.1225 183.737 93.7927 185.218 94.7637 186.5C96.1444 188.325 98.153 191.775 95.7952 194.845C95.7952 194.845 94.2308 197.104 88.9439 196.876H73.6305C71.3818 196.876 69.1693 196.182 67.3849 194.815C66.0203 193.771 64.7001 192.211 63.937 189.885C63.5495 188.705 63.3799 187.463 63.3799 186.222L63.3819 186.22Z" fill="#1E71F7"/>
<path d="M44.5801 80.7751C60.7999 77.4767 63.1435 103.535 47.5455 103.998C33.3484 104.417 32.1917 83.2964 44.5801 80.7751Z" fill="#FEFCEE" stroke="white" stroke-width="0.201864" stroke-miterlimit="10"/>
<path d="M75.3401 80.6052C59.1204 77.3067 56.7767 103.365 72.3747 103.828C86.5718 104.248 87.7285 83.1265 75.3401 80.6052Z" fill="#FEFCEE" stroke="white" stroke-width="0.201864" stroke-miterlimit="10"/>
<path d="M48.5064 88.0032C55.5696 86.8041 56.2418 97.8683 49.6631 98.2538C43.7686 98.599 43.1428 88.9156 48.5064 88.0032Z" fill="black"/>
<path d="M71.6142 87.8313C64.5509 86.6322 63.8787 97.6964 70.4575 98.0819C76.3519 98.4271 76.9777 88.7437 71.6142 87.8313Z" fill="black"/>
<path d="M67.9679 104.601C69.3668 105.99 68.0648 107.724 66.9323 108.775C63.8458 111.642 58.7588 111.955 55.1798 109.819C53.7042 108.939 51.3686 106.803 52.4102 104.952C53.8717 102.356 56.3708 105.824 57.6769 106.514C59.2837 107.362 61.3104 107.417 62.9314 106.591C64.3848 105.852 66.1006 102.748 67.9679 104.601Z" fill="black"/>
<path d="M108.247 110.261C69.6247 150.951 28.1156 127.215 12.1889 110.261C12.1889 120.772 11.7634 143.337 12.1889 149.425C12.6866 156.545 23.1385 166.718 29.1111 169.261H91.8226C117.704 154.002 113.058 124.163 108.247 110.261Z" fill="#F4C425"/>
<path d="M108.813 110.409C108.813 110.409 116.312 124.027 117.398 130.767L120.951 146.783L101.79 154.725C101.79 154.725 96.6366 135.669 95.2639 132.146L108.813 110.409Z" fill="#1E71F7"/>
<path d="M12.2433 110.409C12.2433 110.409 4.99979 124.26 3.65806 130.767L0.105255 146.783L19.2662 154.725C19.2662 154.725 24.4198 135.669 25.7925 132.146L12.2433 110.409Z" fill="#1E71F7"/>
<path d="M116.5 127.761C116.891 125.832 111.273 114.422 108.5 109.761C107.325 112.847 96.8937 121.19 91.9998 124.243L96.8937 137.261C103.093 134.85 116.108 129.69 116.5 127.761Z" fill="#F4C425"/>
<path d="M112.39 161.91C119.386 161.91 125.057 156.238 125.057 149.243C125.057 142.247 119.386 136.576 112.39 136.576C105.394 136.576 99.7231 142.247 99.7231 149.243C99.7231 156.238 105.394 161.91 112.39 161.91Z" fill="#1E71F7"/>
<path d="M12.667 161.91C19.6627 161.91 25.3339 156.238 25.3339 149.243C25.3339 142.247 19.6627 136.576 12.667 136.576C5.67119 136.576 0 142.247 0 149.243C0 156.238 5.67119 161.91 12.667 161.91Z" fill="#1E71F7"/>
<path d="M28.5 180.261L57.5 182.261V176.261H63V182.261L92.5 180.761L92 168.761H28.8349L28.5 180.261Z" fill="#0C30A8"/>
<path d="M109.435 113.723C108.446 110.462 107.663 107.146 107.031 103.797C106.298 99.909 105.636 94.9895 104.972 91.465C104.164 87.1774 103.088 83.0897 101.594 79.2058C98.5019 71.1736 90.9562 60.6686 76.85 55.1658C76.85 55.1658 71.4784 52.4386 60.388 52.261C60.388 52.261 60.3718 52.261 60.3637 52.261C60.3557 52.261 60.3476 52.261 60.3395 52.261C49.2491 52.4406 43.8775 55.1678 43.8775 55.1678C29.7713 60.6686 22.2276 71.1756 19.133 79.2078C17.6372 83.0897 16.5613 87.1794 15.7558 91.467C15.0917 94.9916 14.4296 99.911 13.6968 103.799C13.065 107.146 12.2818 110.464 11.2926 113.725C-0.968597 154.136 27.8959 168.016 27.8959 168.016C42.2687 176.829 59.6613 176.048 60.3637 176.014C61.0662 176.05 78.4588 176.829 92.8316 168.016C92.8316 168.016 121.696 154.136 109.435 113.725V113.723Z" fill="#1E71F7"/>
<path d="M57.528 186.22V161.033L43.2562 150.312L28.3626 159.84C28.3626 159.84 29.6929 174.219 28.1022 182.16C27.7873 183.737 27.1171 185.218 26.1462 186.5C24.7654 188.325 22.7569 191.775 25.1146 194.845C25.1146 194.845 26.6791 197.104 31.9659 196.876H47.2793C49.5281 196.876 51.7405 196.182 53.525 194.815C54.8896 193.771 56.2098 192.211 56.9728 189.885C57.3604 188.705 57.53 187.463 57.53 186.222L57.528 186.22Z" fill="#1E71F7"/>
<path d="M63.3819 186.22V161.033L77.6537 150.312L92.5472 159.84C92.5472 159.84 91.2169 174.219 92.8076 182.16C93.1225 183.737 93.7927 185.218 94.7637 186.5C96.1444 188.325 98.153 191.775 95.7952 194.845C95.7952 194.845 94.2308 197.104 88.9439 196.876H73.6305C71.3818 196.876 69.1693 196.182 67.3849 194.815C66.0203 193.771 64.7001 192.211 63.937 189.885C63.5495 188.705 63.3799 187.463 63.3799 186.222L63.3819 186.22Z" fill="#1E71F7"/>
<path d="M44.5801 80.7751C60.7999 77.4767 63.1435 103.535 47.5455 103.998C33.3484 104.417 32.1917 83.2964 44.5801 80.7751Z" fill="#FEFCEE" stroke="white" stroke-width="0.201864" stroke-miterlimit="10"/>
<path d="M75.3401 80.6052C59.1204 77.3067 56.7767 103.365 72.3747 103.828C86.5718 104.248 87.7285 83.1265 75.3401 80.6052Z" fill="#FEFCEE" stroke="white" stroke-width="0.201864" stroke-miterlimit="10"/>
<path d="M48.5064 88.0032C55.5696 86.8041 56.2418 97.8683 49.6631 98.2538C43.7686 98.599 43.1428 88.9156 48.5064 88.0032Z" fill="black"/>
<path d="M71.6142 87.8313C64.5509 86.6322 63.8787 97.6964 70.4575 98.0819C76.3519 98.4271 76.9777 88.7437 71.6142 87.8313Z" fill="black"/>
<path d="M67.9679 104.601C69.3668 105.99 68.0648 107.724 66.9323 108.775C63.8458 111.642 58.7588 111.955 55.1798 109.819C53.7042 108.939 51.3686 106.803 52.4102 104.952C53.8717 102.356 56.3708 105.824 57.6769 106.514C59.2837 107.362 61.3104 107.417 62.9314 106.591C64.3848 105.852 66.1006 102.748 67.9679 104.601Z" fill="black"/>
<path d="M108.247 110.261C69.6247 150.951 28.1156 127.215 12.1889 110.261C12.1889 120.772 11.7634 143.337 12.1889 149.425C12.6866 156.545 23.1385 166.718 29.1111 169.261H91.8226C117.704 154.002 113.058 124.163 108.247 110.261Z" fill="#F4C425"/>
<path d="M108.813 110.409C108.813 110.409 116.312 124.027 117.398 130.767L120.951 146.783L101.79 154.725C101.79 154.725 96.6366 135.669 95.2639 132.146L108.813 110.409Z" fill="#1E71F7"/>
<path d="M12.2433 110.409C12.2433 110.409 4.99979 124.26 3.65806 130.767L0.105255 146.783L19.2662 154.725C19.2662 154.725 24.4198 135.669 25.7925 132.146L12.2433 110.409Z" fill="#1E71F7"/>
<path d="M116.5 127.761C116.891 125.832 111.273 114.422 108.5 109.761C107.325 112.847 96.8937 121.19 91.9998 124.243L96.8937 137.261C103.093 134.85 116.108 129.69 116.5 127.761Z" fill="#F4C425"/>
<path d="M112.39 161.91C119.386 161.91 125.057 156.238 125.057 149.243C125.057 142.247 119.386 136.576 112.39 136.576C105.394 136.576 99.7231 142.247 99.7231 149.243C99.7231 156.238 105.394 161.91 112.39 161.91Z" fill="#1E71F7"/>
<path d="M12.667 161.91C19.6627 161.91 25.3339 156.238 25.3339 149.243C25.3339 142.247 19.6627 136.576 12.667 136.576C5.67119 136.576 0 142.247 0 149.243C0 156.238 5.67119 161.91 12.667 161.91Z" fill="#1E71F7"/>
<path d="M28.5 180.261L57.5 182.261V176.261H63V182.261L92.5 180.761L92 168.761H28.8349L28.5 180.261Z" fill="#0C30A8"/>
<path d="M5 126.261C5 125.061 9.83333 114.594 12 110.261C14 114.261 23.8333 121.094 28.5 123.761L25.5 133.261C18.8333 131.094 5 127.461 5 126.261Z" fill="#F4C425"/>
<line x1="96.7764" y1="137.814" x2="116.776" y2="127.814" stroke="#AE880A"/>
<line x1="25.523" y1="133.63" x2="4.84174" y2="126.736" stroke="#AE880A"/>
<path d="M12 110.261C29 127.428 71.3 151.461 108.5 110.261" stroke="#AE880A" stroke-linecap="round"/>
<path d="M168.274 56.842C158.081 107.215 128.042 135.098 113.693 143.012C113.567 143.081 113.491 143.209 113.485 143.352C113.285 148.356 118.724 148.705 121.619 148.233C121.696 148.22 121.766 148.185 121.824 148.134C156.572 117.53 167.427 77.3475 168.984 56.9039C169.024 56.389 168.376 56.3358 168.274 56.842Z" fill="#C4DAFD"/>
<path d="M131.053 55.6728C139.399 60.2117 155.655 61.415 162.74 61.4492C164.229 57.2547 167.196 44.4581 168.367 38.033C170.139 24.1737 164.165 14.183 161.011 11.3449C144.565 -1.0678 136.587 12.6258 134.654 21.0242C117.163 18.3184 114.005 30.8388 114.613 37.4372C116.016 46.293 120.621 49.9991 131.053 55.6728Z" fill="#9AEF78"/>
<path d="M194.558 67.2486C185.147 68.5506 169.512 63.9401 162.871 61.4722C162.958 57.0221 164.698 44.0018 165.869 37.5768C169.101 23.9837 178.216 16.7437 182.169 15.2011C201.937 9.39004 204.57 25.018 203.415 33.5583C220.736 37.1986 219.272 50.0279 216.375 55.9874C211.938 63.7784 206.321 65.6211 194.558 67.2486Z" fill="#9AEF78"/>
<path d="M117.353 26.3852C117.178 35.5854 121.364 40.5648 131.025 48.7782C137.876 54.6028 151.565 59.1435 160.144 61.3747C152.234 61.0959 138.499 59.704 131.057 55.6561C120.625 49.9826 116.019 46.2763 114.616 37.4208C114.33 34.3188 114.877 29.9075 117.353 26.3852Z" fill="#73C055"/>
<path d="M194.555 67.2486C185.144 68.5506 169.509 63.9401 162.868 61.4722C162.955 57.0221 164.695 44.0018 165.866 37.5768C169.098 23.9837 178.213 16.7437 182.166 15.2011C201.934 9.39004 204.567 25.018 203.412 33.5583C220.733 37.1986 219.269 50.0279 216.372 55.9874C211.935 63.7784 206.318 65.6211 194.555 67.2486Z" fill="#87E861"/>
<path d="M131.118 55.3166C140.528 54.0146 156.164 58.625 162.805 61.093C162.718 65.5431 160.978 78.5634 159.807 84.9884C156.574 98.5815 147.459 105.822 143.507 107.364C123.739 113.175 121.106 97.5472 122.26 89.0069C104.94 85.3665 106.403 72.5373 109.3 66.5777C113.738 58.7868 119.354 56.9441 131.118 55.3166Z" fill="#C4DAFD"/>
<path d="M152.744 99.819L148.704 107.091C148.066 108.239 149.146 109.581 150.403 109.203L152.536 108.563C152.882 108.459 153.178 108.232 153.363 107.922C156.103 103.354 158.982 97.5948 157.674 98.0244C156.576 98.3851 154.851 98.8287 153.737 99.0824C153.317 99.178 152.953 99.4425 152.744 99.819Z" fill="#C4DAFD"/>
<path d="M194.619 66.8941C186.274 62.3552 170.017 61.1519 162.932 61.1176C161.443 65.3122 158.477 78.1088 157.306 84.5339C155.534 98.3932 161.508 108.384 164.662 111.222C181.107 123.635 189.086 109.941 191.019 101.543C208.51 104.249 211.668 91.7281 211.06 85.1296C209.657 76.2739 205.052 72.5678 194.619 66.8941Z" fill="#C4DAFD"/>
<path d="M113.219 61.4465C111.773 62.7872 110.503 64.44 109.319 66.5186C106.422 72.4783 104.958 85.3074 122.279 88.9478C121.124 97.4882 123.758 113.116 143.525 107.305C144.644 106.868 146.176 105.974 147.872 104.609C127.605 110.453 124.904 94.3632 126.095 85.5556C108.171 81.7887 109.685 68.5132 112.683 62.3464C112.859 62.037 113.039 61.738 113.219 61.4465Z" fill="#C4DAFD"/>
</svg>
