<svg width="47" height="47" viewBox="0 0 47 47" fill="none" xmlns="http://www.w3.org/2000/svg">
<path d="M32.169 24.9232C31.6732 28.8808 28.9692 30.4621 27.8013 31.6101C26.6317 32.7613 26.8412 32.9906 26.9198 34.679C26.9329 34.8879 26.9012 35.0972 26.8268 35.2939C26.7523 35.4906 26.6366 35.6707 26.4868 35.8229C26.337 35.9751 26.1562 36.0963 25.9557 36.1791C25.7551 36.2618 25.5391 36.3043 25.3207 36.3039H20.6807C20.4626 36.3035 20.2467 36.2606 20.0465 36.1776C19.8462 36.0947 19.6657 35.9735 19.5159 35.8214C19.3661 35.6694 19.2502 35.4896 19.1752 35.2932C19.1003 35.0968 19.0678 34.8878 19.0799 34.679C19.0799 33.0224 19.2405 32.6375 18.2001 31.6101C16.8734 30.3383 13.7521 28.5428 13.7521 23.6046C13.7442 22.378 14.0014 21.1632 14.5075 20.0366C15.0137 18.91 15.7578 17.8962 16.693 17.059C17.6282 16.2217 18.7342 15.5793 19.9412 15.1722C21.1483 14.765 22.4303 14.602 23.7063 14.6934C24.9824 14.7847 26.2248 15.1285 27.3554 15.703C28.486 16.2775 29.4801 17.0703 30.2752 18.0314C31.0703 18.9925 31.649 20.1011 31.975 21.2872C32.3009 22.4734 32.367 23.7114 32.169 24.9232Z" stroke="white" stroke-width="2.5" stroke-linecap="round" stroke-linejoin="round"/>
<path d="M20.3108 36.2115V38.7416C20.3108 39.4327 20.7123 40 21.2063 40H24.7902C25.2877 40 25.6875 39.431 25.6875 38.7416V36.2115M21.6375 18.5741C20.6067 18.5745 19.6184 18.9673 18.8897 19.6662C18.161 20.365 17.7516 21.3126 17.7516 22.3007M35.7984 23.9423H39M32.5759 13.8819L34.847 11.7049M34.3216 32.4698L36.5927 34.6452M22.9991 8V10.4816M11.1984 11.7032L13.4538 13.8819M9.45268 34.6452L11.7081 32.4698M10.1998 23.9423H7" stroke="white" stroke-width="2.5" stroke-linecap="round" stroke-linejoin="round"/>
</svg>
